<svg width="362" height="314" viewBox="0 0 362 314" fill="none" xmlns="http://www.w3.org/2000/svg">
<g clip-path="url(#clip0_5_217)">
<path d="M159.922 154.351C164.036 141.067 168.095 127.955 172.133 114.837C172.417 113.915 173.213 112.703 172.658 112.075C171.947 111.27 170.705 112.119 169.722 112.337C159.63 114.577 149.546 116.857 139.458 119.117C138.96 119.229 138.443 119.263 137.924 119.334C137.52 118.54 137.974 117.935 138.163 117.342C139.955 111.736 141.763 106.134 143.611 100.545C145.109 96.0119 147.859 92.3886 151.898 89.8415C163.957 82.2351 176.039 74.6647 188.133 67.1133C193.956 63.4772 200.541 62.1657 207.169 60.9479C216.666 59.2031 226.139 57.333 235.622 55.516C238.503 54.964 238.532 54.9726 237.67 57.7316C227.789 89.3472 217.903 120.961 208.008 152.573C202.781 169.273 197.269 185.89 192.393 202.692C189.389 213.04 182.596 218.985 172.711 221.616C163.533 224.058 154.177 225.832 144.9 227.903C142.912 228.347 140.912 228.746 138.947 229.277C137.282 229.727 136.978 229.332 137.492 227.685C140.482 218.105 143.399 208.502 146.329 198.903C150.845 184.11 155.352 169.315 159.922 154.351Z" fill="#FCFCFD"/>
<path d="M128.124 177.408C125.435 179.551 122.425 180.072 119.267 180.073C109.756 180.077 100.244 180.122 90.7338 180.037C88.9498 180.021 88.1175 180.444 87.5805 182.288C84.5226 192.789 81.2946 203.24 78.1339 213.711C76.0534 220.604 71.6288 223.875 64.4282 223.851C57.7099 223.829 50.9914 223.851 44.2733 223.813C39.4013 223.785 37.7162 221.882 38.9444 217.122C40.6782 210.403 42.7857 203.779 44.7481 197.119C46.22 192.124 47.6677 187.121 49.2273 182.153C49.7299 180.552 49.4448 180.073 47.7004 180.081C36.3777 180.133 25.0547 180.092 13.7317 180.077C12.7507 180.076 11.7658 180.099 10.7895 180.023C7.38749 179.757 5.73112 177.794 6.18742 174.416C6.38812 172.931 6.83567 171.471 7.25481 170.023C9.18513 163.358 11.1351 156.698 13.097 150.042C14.915 143.875 19.4814 140.447 26.0274 140.421C37.1237 140.377 48.2204 140.35 59.3163 140.413C61.0719 140.423 61.7922 139.822 62.271 138.162C65.1352 128.232 68.1469 118.345 71.0415 108.423C73.3413 100.54 77.5911 97.2869 85.8724 97.2707C92.2133 97.2584 98.5542 97.2644 104.895 97.2762C110.77 97.2871 112.294 99.3449 110.59 105.079C107.56 115.276 104.5 125.463 101.422 135.645C99.9666 140.459 99.9341 140.44 104.878 140.44C114.691 140.439 124.504 140.429 134.317 140.464C139.5 140.482 141.092 142.49 139.673 147.442C137.448 155.205 135.095 162.931 132.754 170.66C131.948 173.322 130.468 175.575 128.124 177.408Z" fill="#3BAA34"/>
<path d="M168.978 241.594C173.432 237.4 178.566 233.821 183.486 229.97C199.724 217.256 215.44 203.967 229.605 188.917C242.757 174.943 253.12 159.092 261.611 141.953C262.649 139.858 263.593 137.71 264.746 135.68C265.796 133.831 265.06 133.049 263.353 132.369C259.389 130.789 255.367 130.929 251.332 131.835C244.001 133.481 237.894 137.472 232.132 142.08C230.851 143.104 229.599 144.163 227.869 145.588C228.998 141.361 230.853 138.103 232.709 134.887C237.895 125.898 244.754 118.6 254.67 114.847C264.545 111.11 274.088 112.03 283.027 117.795C285.179 119.183 287.282 120.679 289.254 122.31C299.601 130.866 310.624 131.051 322.19 125.125C326.425 122.956 330.359 120.326 334.024 117.205C334.499 118.019 333.99 118.508 333.757 118.986C328.193 130.437 319.927 139.24 308.278 144.613C303.056 147.022 297.52 148.062 291.751 147.51C290.753 147.414 290.084 147.595 289.469 148.488C287.032 152.03 284.566 155.557 281.985 158.995C280.898 160.443 281.46 160.795 282.852 161.167C286.573 162.161 290.21 163.422 293.695 165.071C302.51 169.243 303.705 175.455 297.014 182.551C291.043 188.881 283.769 193.499 276.335 197.847C267.921 202.768 259.184 207.056 250.091 210.591C249.276 210.908 248.499 211.426 247.136 211.34C258.106 200.898 269.108 190.916 279.112 179.199C274.123 179.199 269.703 179.188 265.283 179.209C264.448 179.213 263.986 179.916 263.439 180.419C239.511 202.417 213.192 220.93 183.902 235.136C179.079 237.475 174.211 239.692 168.978 241.594Z" fill="#3BAA34"/>
<path d="M50.4403 246.897C53.8815 249.854 57.1459 252.745 60.5754 255.473C66.8657 260.476 73.8979 262.999 81.9186 262.906C85.0827 262.869 88.5827 262.145 91.3177 263.249C93.9674 264.319 95.7737 267.398 98.0495 269.486C115.927 285.892 137.004 295.321 161.049 298.164C181.821 300.621 201.821 297.14 221.267 289.936C243.515 281.693 263.191 269.354 279.981 252.522C280.596 251.906 281.281 251.51 282.077 251.253C293.296 247.62 304.181 243.188 314.604 237.651C314.918 237.484 315.258 237.367 315.956 237.068C314.798 239.676 313.184 241.532 311.728 243.468C289.224 273.382 259.427 292.931 224.195 304.531C200.148 312.449 175.47 315.372 150.249 312.163C122.985 308.695 98.2345 299.139 77.0521 281.234C65.8985 271.806 57.1415 260.458 50.2993 247.407C50.243 247.127 50.2447 246.996 50.4403 246.897Z" fill="#3BAA34"/>
<path d="M72.7344 81.788C84.809 61.0941 101.047 44.3897 121.402 31.8768C150.9 13.7429 183.011 5.62357 217.606 8.28861C238.769 9.91889 258.669 16.0848 276.849 27.1254C301.426 42.0502 318.602 63.1253 328.144 90.3213C328.308 90.7871 328.689 91.2437 328.32 92.0052C327.159 90.5159 326.081 89.0872 324.956 87.6972C315.378 75.8697 303.245 69.7501 287.787 71.1611C286.569 71.2723 285.859 70.8439 285.12 69.9505C268.869 50.3195 248.376 36.9579 224.126 29.4881C191.264 19.3651 159.139 21.7384 127.953 36.2115C105.887 46.4523 88.2359 62.0507 73.6127 81.4928C73.3604 81.8324 73.1445 81.9304 72.7344 81.788Z" fill="#3BAA34"/>
<path d="M143.337 259.948C181.469 254.683 219.258 248.415 256.337 238.418C274.65 233.481 292.58 227.449 309.751 219.314C310.868 218.785 311.744 218.631 312.83 219.487C314.978 221.18 317.57 222.081 320.214 223.132C319.671 223.954 318.828 224.082 318.126 224.389C297.376 233.47 275.694 239.615 253.69 244.711C225.871 251.154 197.688 255.401 169.307 258.374C160.828 259.263 152.324 259.898 143.623 260.652C143.223 260.498 143.153 260.297 143.337 259.948Z" fill="#3BAA34"/>
<path d="M313.854 108.961C309.151 117.343 299.705 119.776 292.142 114.688C285.021 109.897 283.633 99.8939 289.129 92.9716C293.394 87.5991 301.628 85.9051 307.547 89.1824C314.073 92.7954 317.008 100.09 314.674 106.916C314.455 107.557 314.177 108.177 313.854 108.961Z" fill="#3BAA34"/>
<path d="M221.213 232.65C244.145 227.238 266.558 220.688 287.669 210.264C291.865 208.193 296.028 206.049 299.934 203.461C301.1 202.689 301.576 202.87 301.857 204.223C302.259 206.159 303.011 207.993 304.154 209.603C305.245 211.141 304.653 211.711 303.124 212.289C296.84 214.662 290.532 216.972 284.118 218.959C263.683 225.289 242.848 229.855 221.496 233.004C221.24 232.943 221.178 232.858 221.213 232.65Z" fill="#3BAA34"/>
<path d="M88.5675 250.466C108.472 246.614 128.166 242.533 148.156 237.814C146.796 239.88 144.856 240.876 143.722 242.53C142.298 244.609 140.18 244.503 138.125 244.81C121.794 247.251 105.384 249.077 88.7968 251.082C88.4139 250.948 88.3602 250.76 88.5675 250.466Z" fill="#3BAA34"/>
<path d="M140.385 260.828C136.333 261.452 132.363 261.65 129.558 261.609C132.189 260.947 136.041 260.635 140.073 260.192C140.422 260.346 140.493 260.516 140.385 260.828Z" fill="#3BAA34"/>
<path d="M88.5291 250.396C88.6553 250.551 88.5957 250.704 88.5671 250.976C86.3498 251.641 84.0627 251.826 81.7439 251.803C83.8757 251.002 86.1 250.654 88.5291 250.396Z" fill="#3BAA34"/>
<path d="M72.4783 81.7559C72.8002 81.6672 73.0072 81.6701 73.3689 81.6455C72.2884 83.4624 71.0534 85.3067 69.8184 87.151C70.2168 85.1366 71.3332 83.5141 72.4783 81.7559Z" fill="#3BAA34"/>
<path d="M221.127 232.51C221.305 232.61 221.3 232.694 221.299 232.902C219.925 233.654 218.465 233.699 216.917 233.372C218.259 233.079 219.601 232.786 221.127 232.51Z" fill="#3BAA34"/>
<path d="M140.444 260.932C140.28 260.774 140.274 260.613 140.27 260.331C140.885 260.152 141.499 260.095 142.298 260.03C142.541 260.134 142.598 260.247 142.572 260.529C141.859 260.775 141.231 260.851 140.444 260.932Z" fill="#3BAA34"/>
<path d="M142.576 260.733C142.508 260.586 142.529 260.473 142.516 260.191C142.726 259.946 142.97 259.871 143.342 259.818C143.429 260.022 143.388 260.203 143.381 260.52C143.165 260.692 142.916 260.729 142.576 260.733Z" fill="#3BAA34"/>
<path d="M50.3402 247.176C50.1267 247.011 49.8498 246.645 49.9271 246.541C50.1763 246.204 50.3845 246.522 50.6006 246.826C50.5692 246.984 50.5041 247.039 50.3402 247.176Z" fill="#3BAA34"/>
<path d="M168.853 241.662C168.764 241.934 168.585 241.996 168.365 241.841C168.357 241.835 168.481 241.642 168.636 241.532C168.729 241.528 168.811 241.617 168.853 241.662Z" fill="#3BAA34"/>
<path d="M328.87 92.7488C328.873 92.7652 328.867 92.7325 328.87 92.7488Z" fill="#3BAA34"/>
<path d="M215.191 234.098C215.193 234.092 215.19 234.103 215.191 234.098Z" fill="#3BAA34"/>
</g>
<defs>
<clipPath id="clip0_5_217">
<rect width="362" height="314" fill="white"/>
</clipPath>
</defs>
</svg>
