<svg width="395" height="243" viewBox="0 0 395 243" fill="none" xmlns="http://www.w3.org/2000/svg">
<g clip-path="url(#clip0_5_245)">
<path d="M270.923 140.591C274.272 146.75 279.739 150.418 286.272 153.354C283.545 156.399 281.038 159.355 278.369 162.158C256.302 185.325 230.987 204.221 202.871 219.423C186.778 228.125 170.157 235.576 152.503 240.535C148.95 241.533 145.275 242.101 141.645 242.814C140.952 242.95 140.21 242.834 139.371 242.49C140.816 241.579 142.241 240.633 143.71 239.762C169.486 224.485 193.355 206.695 214.698 185.622C231.36 169.168 246.036 151.148 257.15 130.425C264.231 117.221 269.818 103.359 274.695 89.2157C276.71 83.3697 275.552 81.8039 269.439 81.7282C256.402 81.5666 243.94 84.5006 231.789 89.0003C218.161 94.0473 205.824 101.401 194.159 109.972C192.693 111.049 191.109 111.966 189.58 112.958C189.364 112.793 189.147 112.628 188.931 112.463C189.221 111.495 189.387 110.467 189.822 109.569C193.024 102.96 197.379 97.1259 202.421 91.8518C221.984 71.3877 246.08 59.9145 273.976 55.9971C286.02 54.3057 298.055 54.6744 310.031 56.2574C329.236 58.7962 346.445 53.8749 362.285 43.1919C372.657 36.1972 381.313 27.3712 389.416 17.9451C390.645 16.5154 391.861 15.0693 393.17 13.7158C393.584 13.2878 394.285 13.1367 394.855 12.8589C395.053 13.4697 395.482 14.1105 395.408 14.6862C395.116 16.9431 394.928 19.264 394.235 21.4106C384.688 50.9757 366.346 72.1777 336.176 81.9822C333.179 82.9561 330.028 83.45 326.969 84.244C326.416 84.3875 325.67 84.8048 325.504 85.2702C321.425 96.7632 315.612 107.355 308.665 117.635C312.088 118.019 315.333 118.267 318.539 118.765C329.473 120.464 339.94 123.639 349.615 129.111C351.893 130.399 354.089 131.873 356.169 133.461C362.398 138.217 364.216 145.305 361.195 152.568C358.646 158.697 354.231 163.431 349.484 167.846C336.804 179.641 322.239 188.696 306.949 196.647C299.478 200.532 291.895 204.201 283.724 206.418C282.615 206.719 281.337 206.396 280.137 206.362C280.525 205.27 280.653 203.963 281.347 203.124C283.963 199.964 286.692 196.89 289.506 193.904C298.185 184.691 307.031 175.633 315.574 166.297C318.317 163.299 320.531 159.749 322.604 156.226C324.751 152.576 323.669 150.289 319.505 149.536C315.679 148.845 311.772 148.557 307.889 148.235C300.518 147.622 293.114 147.329 285.771 146.487C280.497 145.882 275.65 143.787 271.235 140.257C270.879 140.109 270.732 140.122 270.633 140.061C270.596 139.942 270.513 139.896 270.43 139.85C270.491 139.931 270.552 140.013 270.626 140.198C270.733 140.398 270.828 140.494 270.923 140.591Z" fill="#3BAA34"/>
<path d="M158.69 153.955C154.478 168.228 150.302 182.341 146.125 196.454C145.075 200 142.578 201.885 138.814 201.897C129.183 201.927 119.552 201.942 109.921 201.946C105.929 201.948 104.419 199.958 105.569 196.089C108.506 186.219 111.501 176.366 114.468 166.505C122.495 139.836 130.52 113.167 138.54 86.4966C138.845 85.4855 139.092 84.4575 139.458 83.0971C136.96 84.0605 134.794 84.8889 132.634 85.7304C126.374 88.1687 120.117 90.614 113.856 93.0507C113.294 93.2696 112.728 93.5085 112.141 93.6315C109.409 94.2039 108.03 92.8497 108.811 90.1451C111.484 80.8983 114.16 71.6494 117.089 62.4823C117.555 61.0213 119.098 59.5084 120.529 58.8142C130.881 53.7921 141.335 48.9817 151.749 44.0886C156.222 41.9872 161.029 42.0236 165.799 41.858C172.864 41.6128 179.931 41.4215 186.998 41.2151C190.739 41.1058 191.723 42.4004 190.646 46.0408C181.388 77.3222 172.126 108.602 162.862 139.882C161.489 144.521 160.104 149.157 158.69 153.955Z" fill="#FCFCFD"/>
<path d="M72.8299 118.497C73.4893 118.841 74.1823 119.186 74.8767 119.189C82.6239 119.222 90.3714 119.186 98.1187 119.202C102.593 119.211 104.083 121.185 102.859 125.532C100.871 132.595 98.8446 139.646 96.7981 146.692C95.9173 149.725 93.5712 151.476 90.3387 151.492C82.1199 151.53 73.9001 151.577 65.6824 151.479C63.973 151.459 63.379 152.065 62.9468 153.599C60.411 162.601 57.7847 171.577 55.1703 180.556C54.1402 184.094 51.8713 185.828 48.2429 185.842C41.1018 185.868 33.9607 185.874 26.8196 185.866C23.0584 185.861 21.5955 183.94 22.6399 180.215C24.4209 173.862 26.3015 167.538 28.1377 161.201C29.0501 158.052 29.957 154.902 30.939 151.501C30.0379 151.501 29.3852 151.501 28.7325 151.501C20.6482 151.503 12.564 151.511 4.47975 151.506C0.441651 151.504 -0.979352 149.624 0.129946 145.654C2.10262 138.593 4.10826 131.542 6.13435 124.497C7.20221 120.784 9.51683 119.07 13.3957 119.065C21.6821 119.054 29.9689 119.024 38.2545 119.102C39.6994 119.116 40.1926 118.616 40.5651 117.293C43.0469 108.48 45.6097 99.6903 48.1738 90.9011C49.191 87.4145 51.5382 85.6322 55.1439 85.6212C62.2848 85.5994 69.4261 85.6017 76.567 85.6373C80.2333 85.6555 81.715 87.606 80.698 91.1903C78.1271 100.252 75.4804 109.291 72.8299 118.497Z" fill="#3BAA34"/>
<path d="M296.847 30.1725C293.048 16.6021 301.193 3.31952 315.119 0.819121C328.708 -1.62087 340.062 8.65022 341.484 20.6984C342.818 31.9956 335.665 42.7878 324.654 45.7087C313.462 48.6778 302.18 43.1201 297.665 32.4072C297.378 31.7264 297.144 31.0236 296.847 30.1725Z" fill="#3BAA34"/>
<path d="M195.422 191.835C188.497 197.485 181.898 203.603 174.588 208.701C148.117 227.16 118.628 237.534 86.4787 240.271C76.0394 241.16 65.6247 240.593 55.2589 239.112C54.9688 239.071 54.6889 238.957 53.885 238.73C58.3587 238.315 62.2797 237.966 66.1978 237.586C87.0221 235.565 107.138 230.49 126.811 223.512C150.23 215.205 172.44 204.302 194.07 192.156C194.362 191.992 194.67 191.855 195.156 191.738C195.342 191.771 195.422 191.835 195.422 191.835Z" fill="#3BAA34"/>
<path d="M184.049 140.865C190.755 133.705 198.341 127.582 206.478 122.154C216.839 115.244 227.821 109.59 239.963 106.465C242.108 105.913 244.304 105.506 246.501 105.234C248.321 105.008 250.022 105.457 250.978 107.267C251.886 108.985 251.571 111.135 249.948 112.612C248.986 113.487 247.761 114.328 246.523 114.61C224.459 119.628 204.399 129.317 185.09 140.781C184.917 140.884 184.735 140.973 184.37 141.039C184.183 141.011 184.049 140.865 184.049 140.865Z" fill="#3BAA34"/>
<path d="M164.722 192.266C165 191.935 165.219 191.515 165.565 191.287C179.572 182.042 192.516 171.397 205.658 161.006C211.4 156.466 217.456 152.321 223.4 148.041C224.148 147.503 225.08 146.942 225.944 146.913C226.982 146.879 228.356 147.105 228.992 147.777C229.539 148.356 229.651 149.923 229.255 150.695C228.509 152.151 227.394 153.49 226.198 154.631C216.899 163.502 206.475 170.874 195.432 177.386C185.685 183.134 175.689 188.39 164.859 192.243C164.709 192.25 164.722 192.266 164.722 192.266Z" fill="#3BAA34"/>
<path d="M259.64 38.6749C268.137 37.597 276.472 37.4367 284.807 38.3345C286.095 38.4733 287.461 38.9609 288.546 39.6643C290.267 40.7795 290.116 42.9963 288.281 43.9315C287.244 44.4597 285.972 44.7734 284.808 44.7678C259.88 44.6468 235.388 48.0256 211.19 53.8144C210.732 53.9239 210.268 54.0115 209.804 54.0869C209.692 54.105 209.566 54.0333 209.087 53.9114C225.224 45.9737 241.942 41.027 259.64 38.6749Z" fill="#3BAA34"/>
<path d="M164.703 192.241C164.608 192.308 164.521 192.389 164.424 192.453C164.406 192.464 164.342 192.404 164.3 192.377C164.389 192.322 164.477 192.266 164.644 192.239C164.722 192.266 164.709 192.25 164.703 192.241Z" fill="#3BAA34"/>
<path d="M184.238 141.094C184.157 141.245 184.023 141.313 183.789 141.345C183.69 141.309 183.706 141.322 183.706 141.322C183.755 141.197 183.804 141.072 183.951 140.906C184.049 140.865 184.183 141.011 184.238 141.094Z" fill="#3BAA34"/>
<path d="M183.682 141.302C183.645 141.386 183.616 141.478 183.588 141.57C183.574 141.501 183.56 141.431 183.626 141.342C183.706 141.322 183.689 141.309 183.682 141.302Z" fill="#3BAA34"/>
<path d="M195.301 191.74C195.352 191.633 195.445 191.556 195.537 191.479C195.559 191.574 195.581 191.67 195.513 191.8C195.422 191.835 195.342 191.771 195.301 191.74Z" fill="#3BAA34"/>
<path d="M270.614 140.095C270.552 140.013 270.491 139.932 270.43 139.85C270.513 139.896 270.596 139.942 270.639 140.051C270.599 140.114 270.614 140.095 270.614 140.095Z" fill="#3BAA34"/>
<path d="M270.592 140.124C270.732 140.122 270.879 140.109 271.118 140.184C271.165 140.327 271.119 140.382 270.998 140.514C270.828 140.495 270.733 140.398 270.626 140.198C270.614 140.095 270.599 140.114 270.592 140.124Z" fill="#3BAA34"/>
</g>
<defs>
<clipPath id="clip0_5_245">
<rect width="395" height="243" fill="white"/>
</clipPath>
</defs>
</svg>
